<svg width="30" height="30" viewBox="0 0 30 30" fill="none" xmlns="http://www.w3.org/2000/svg">
<path fill-rule="evenodd" clip-rule="evenodd" d="M0.470722 2.74357C-0.156907 2.11594 -0.156907 1.09835 0.470722 0.470722C1.09835 -0.156907 2.11594 -0.156907 2.74357 0.470722L11.0275 8.75468L18.6698 3.38591L18.6761 3.38152C20.7805 1.92546 23.6218 3.45826 23.5715 6.00987V21.2986L29.5293 27.2566C30.1569 27.8842 30.1569 28.9016 29.5293 29.5293C28.9016 30.1569 27.8842 30.1569 27.2566 29.5293L22.8429 25.1156C22.8395 25.1199 22.8358 25.124 22.8324 25.1283L6.96278 9.25853C6.96929 9.2574 6.97583 9.2563 6.98236 9.25521L0.470722 2.74357ZM4.72814 10.812L20.2364 26.3203C19.6376 26.3126 19.0304 26.1367 18.4833 25.758L18.4675 25.7471L10.3692 19.927H7.50001C5.74113 19.927 4.28572 18.4715 4.28572 16.7127V12.427C4.28572 11.8407 4.44742 11.2882 4.72814 10.812Z" fill="white"/>
</svg>
