<svg width="30" height="30" viewBox="0 0 30 30" fill="none" xmlns="http://www.w3.org/2000/svg">
<path fill-rule="evenodd" clip-rule="evenodd" d="M19.3244 4.06449C19.3368 3.33056 19.1897 2.60655 18.8992 1.97258C18.6088 1.33862 18.1864 0.819423 17.6787 0.47245C17.1711 0.125477 16.598 -0.0357413 16.0229 0.00663558C15.4478 0.0490125 14.8931 0.293333 14.4203 0.712558L14.4138 0.718031L6.1022 8.15521H3.22073C1.46006 8.15521 0 10.0159 0 12.2596V17.7321C0 19.9759 1.46006 21.8366 3.22073 21.8366H6.09576L14.212 29.2683L14.227 29.2819C16.3098 31.1207 19.2685 29.2163 19.3244 25.9711V4.06449ZM25.2097 5.18088C25.3727 5.00911 25.5606 4.87992 25.7628 4.80071C25.9649 4.7215 26.1773 4.6938 26.3879 4.71921C26.5984 4.74462 26.803 4.82263 26.9899 4.9488C27.1768 5.07496 27.3423 5.2468 27.4771 5.45451C29.2592 8.19899 30 11.4935 30 14.9959C30 18.4983 29.2571 21.7928 27.4771 24.5372C27.2049 24.9567 26.8131 25.2212 26.3879 25.2725C25.9627 25.3238 25.5389 25.1578 25.2097 24.8109C24.8806 24.464 24.673 23.9647 24.6328 23.4228C24.5925 22.8809 24.7228 22.3408 24.995 21.9214C26.2103 20.0498 26.7793 17.7349 26.7793 14.9959C26.7793 12.2569 26.2103 9.94199 24.9971 8.07312C24.862 7.86536 24.7604 7.62568 24.698 7.3678C24.6357 7.10992 24.6138 6.8389 24.6338 6.57025C24.6537 6.30161 24.7151 6.04061 24.8143 5.80221C24.9134 5.5638 25.0486 5.35267 25.2119 5.18088H25.2097ZM21.9031 10.3114C22.2898 10.0818 22.7322 10.0572 23.1332 10.2429C23.5341 10.4286 23.8609 10.8095 24.0417 11.3019C24.4646 12.4484 24.6686 13.7126 24.6343 14.9959C24.6691 16.2696 24.466 17.5357 24.0417 18.6898C23.852 19.164 23.5252 19.5256 23.1303 19.6986C22.7353 19.8715 22.3031 19.8422 21.9249 19.6168C21.5466 19.3913 21.2518 18.9875 21.1027 18.4904C20.9536 17.9933 20.9619 17.4418 21.1258 16.9523C21.3392 16.3712 21.4379 15.7325 21.4135 15.0916C21.4112 15.0278 21.4112 14.9639 21.4135 14.9001C21.4379 14.2593 21.3392 13.6206 21.1258 13.0394C20.9449 12.5467 20.9249 11.9825 21.0702 11.4709C21.2156 10.9594 21.5144 10.5423 21.9009 10.3114H21.9031Z" fill="white"/>
</svg>
