<svg width="45" height="45" viewBox="0 0 45 45" fill="none" xmlns="http://www.w3.org/2000/svg">
<path d="M36.5625 5.625H8.4375C7.69158 5.625 6.97621 5.92132 6.44876 6.44876C5.92132 6.97621 5.625 7.69158 5.625 8.4375V36.5625C5.625 37.3084 5.92132 38.0238 6.44876 38.5512C6.97621 39.0787 7.69158 39.375 8.4375 39.375H36.5625C37.3084 39.375 38.0238 39.0787 38.5512 38.5512C39.0787 38.0238 39.375 37.3084 39.375 36.5625V8.4375C39.375 7.69158 39.0787 6.97621 38.5512 6.44876C38.0238 5.92132 37.3084 5.625 36.5625 5.625ZM31.9324 29.9426C32.0631 30.0732 32.1667 30.2283 32.2374 30.3991C32.3081 30.5698 32.3445 30.7527 32.3445 30.9375C32.3445 31.1223 32.3081 31.3052 32.2374 31.4759C32.1667 31.6467 32.0631 31.8018 31.9324 31.9324C31.8018 32.0631 31.6467 32.1667 31.4759 32.2374C31.3052 32.3081 31.1223 32.3445 30.9375 32.3445C30.7527 32.3445 30.5698 32.3081 30.3991 32.2374C30.2283 32.1667 30.0732 32.0631 29.9426 31.9324L22.5 24.4881L15.0574 31.9324C14.7936 32.1963 14.4357 32.3445 14.0625 32.3445C13.6893 32.3445 13.3314 32.1963 13.0676 31.9324C12.8037 31.6686 12.6555 31.3107 12.6555 30.9375C12.6555 30.5643 12.8037 30.2064 13.0676 29.9426L20.5119 22.5L13.0676 15.0574C12.8037 14.7936 12.6555 14.4357 12.6555 14.0625C12.6555 13.6893 12.8037 13.3314 13.0676 13.0676C13.3314 12.8037 13.6893 12.6555 14.0625 12.6555C14.4357 12.6555 14.7936 12.8037 15.0574 13.0676L22.5 20.5119L29.9426 13.0676C30.2064 12.8037 30.5643 12.6555 30.9375 12.6555C31.3107 12.6555 31.6686 12.8037 31.9324 13.0676C32.1963 13.3314 32.3445 13.6893 32.3445 14.0625C32.3445 14.4357 32.1963 14.7936 31.9324 15.0574L24.4881 22.5L31.9324 29.9426Z" fill="black"/>
</svg>
